<?xml version="1.0" encoding="UTF-8"?>
<svg version="1.1" xmlns="http://www.w3.org/2000/svg" width="289" height="140">
<path d="M0 0 C95.37 0 190.74 0 289 0 C289 46.2 289 92.4 289 140 C193.63 140 98.26 140 0 140 C0 93.8 0 47.6 0 0 Z " fill="#FDFDFD" transform="translate(0,0)"/>
<path d="M0 0 C1.44064486 0.87850134 2.86215295 1.790259 4.25 2.75 C5.61125 3.5853125 5.61125 3.5853125 7 4.4375 C13.48735289 11.10505714 16.43305013 18.32786714 16.5 27.5 C16.520625 28.1909375 16.54125 28.881875 16.5625 29.59375 C16.59049421 33.31697954 16.28151737 36.06884275 14.671875 39.453125 C13.14398054 42.99582535 12.89937394 44.20610066 14.25 47.75 C17.96477392 53.38512315 22.41136502 56.61443677 28.25 59.75 C30.75 62.0625 30.75 62.0625 33.25 64.75 C34.47678635 65.96074993 35.70607652 67.16896669 36.9375 68.375 C42.11122084 73.44547585 42.11122084 73.44547585 42.5625 77.6875 C42.20868973 81.15484065 41.925255 82.50623774 39.25 84.75 C36.14453125 85.328125 36.14453125 85.328125 32.25 84.75 C29.1204713 82.56790862 26.60423358 79.89928615 24 77.125 C23.29359375 76.41214844 22.5871875 75.69929688 21.859375 74.96484375 C18.12618206 71.11145331 15.48689481 67.67257102 13.25 62.75 C11.47310618 60.48442076 11.47310618 60.48442076 9.5625 58.5 C6.25 54.96118012 6.25 54.96118012 6.25 52.75 C5.239375 53.36875 4.22875 53.9875 3.1875 54.625 C-5.0599529 59.24882051 -14.34828677 60.31269283 -23.56640625 58.0625 C-32.96078016 54.62028666 -38.17451415 49.31940018 -42.59594727 40.421875 C-45.98300591 32.80074392 -46.11207947 24.50832571 -43.8125 16.5 C-40.28907097 8.84395095 -33.46122818 1.90491233 -25.75 -1.46875 C-17.38269342 -3.64773609 -7.88150162 -3.79916695 0 0 Z " fill="#1D1D1D" transform="translate(223.75,43.25)"/>
<path d="M0 0 C0.46107638 6.45506926 -0.55879055 10.52168663 -4 16 C-4.5259375 16.556875 -5.051875 17.11375 -5.59375 17.6875 C-7.73591223 21.21016677 -7.56992173 24.69858874 -7.6875 28.75 C-7.72166016 29.54277344 -7.75582031 30.33554688 -7.79101562 31.15234375 C-7.87319104 33.10107504 -7.93828045 35.05051362 -8 37 C-4.37 36.01 -0.74 35.02 3 34 C3.33 32.68 3.66 31.36 4 30 C4.66 30 5.32 30 6 30 C6.2784375 28.6696875 6.2784375 28.6696875 6.5625 27.3125 C8.44058188 22.9847461 10.86171617 21.13782712 15 19 C18.375 18.125 18.375 18.125 21 18 C22 19 22 19 22.1875 21.8125 C21.9966519 25.05691772 21.71412093 26.31814714 20 29 C17.6875 30.921875 17.6875 30.921875 15 32.75 C14.113125 33.36359375 13.22625 33.9771875 12.3125 34.609375 C10 36 10 36 8 36 C8 36.66 8 37.32 8 38 C9.794375 37.505 9.794375 37.505 11.625 37 C15.15791497 36.10734177 18.34079109 35.81703955 22 36 C22 35.34 22 34.68 22 34 C23.32 34 24.64 34 26 34 C26 33.34 26 32.68 26 32 C26.763125 31.79375 27.52625 31.5875 28.3125 31.375 C31.2477379 30.22032583 31.2477379 30.22032583 32.3125 27.1875 C34.61234396 22.84335029 37.65213259 21.11449021 42 19 C46.35135135 17.67567568 46.35135135 17.67567568 49 19 C49.34934248 21.93447681 49.51495218 24.14367502 47.95703125 26.734375 C46.625 28.375 46.625 28.375 44 31 C43.34 31 42.68 31 42 31 C42 31.66 42 32.32 42 33 C41.34 33 40.68 33 40 33 C39.67 33.99 39.34 34.98 39 36 C37.68 36 36.36 36 35 36 C35 36.66 35 37.32 35 38 C37.64 38 40.28 38 43 38 C43 37.34 43 36.68 43 36 C43.804375 35.7525 44.60875 35.505 45.4375 35.25 C46.613125 34.8375 47.78875 34.425 49 34 C49.74636719 33.83628906 50.49273437 33.67257813 51.26171875 33.50390625 C54.07736262 32.6801559 55.77656961 31.94230701 58 30 C59.45579348 26.29434388 60.28689565 22.66073003 61.10546875 18.77734375 C62.26512317 13.88046243 64.33231248 10.20115415 67 6 C67.474375 4.989375 67.94875 3.97875 68.4375 2.9375 C68.953125 2.298125 69.46875 1.65875 70 1 C73.1875 0.6875 73.1875 0.6875 76 1 C75.62625268 8.59952888 73.42410997 14.2402257 70 21 C70.99 20.34 71.98 19.68 73 19 C76.625 18.8125 76.625 18.8125 80 19 C81 20 81 20 81.5 23.1875 C80.96841881 27.2408066 80.7403727 27.7500742 77.875 30.3125 C74.77231386 32.68216864 71.8219615 34.06781427 68 35 C68 35.99 68 36.98 68 38 C72.57801082 38.60211833 76.42832595 38.90365185 80.52734375 36.546875 C82.76711408 34.77294708 84.88587401 32.92081097 87 31 C88.04800781 30.27296875 88.04800781 30.27296875 89.1171875 29.53125 C91.2590452 27.78932424 92.10541667 26.30605655 93.25 23.8125 C93.58515625 23.09707031 93.9203125 22.38164063 94.265625 21.64453125 C94.62914062 20.83048828 94.62914062 20.83048828 95 20 C95.99 20 96.98 20 98 20 C98.33 21.98 98.66 23.96 99 26 C101.64 26.33 104.28 26.66 107 27 C105.84826645 29.46800047 104.95216435 31.04783565 103 33 C102.83318891 36.08347826 102.83318891 36.08347826 103 39 C103.99 39.33 104.98 39.66 106 40 C106 39.34 106 38.68 106 38 C111.445 35.03 111.445 35.03 117 32 C115.72869015 37.46663236 113.67252673 39.91436914 109 43 C105.375 44.125 105.375 44.125 102 44 C99.5625 42.125 99.5625 42.125 98 39 C97.82378384 36.61903276 97.87070685 34.368031 98.0546875 31.98828125 C98.22144877 29.7631835 98.22144877 29.7631835 96 28 C95.31292969 28.75925781 94.62585938 29.51851562 93.91796875 30.30078125 C93.00785258 31.30472383 92.0976941 32.30862807 91.1875 33.3125 C90.50977539 34.06176758 90.50977539 34.06176758 89.81835938 34.82617188 C87.59780179 37.27364776 85.36844075 39.69450785 83 42 C82.67 41.01 82.34 40.02 82 39 C81.38125 39.495 80.7625 39.99 80.125 40.5 C75.87617277 42.53943707 71.65050261 42.83955976 67 42 C64.8480563 38.77208445 64.79913557 37.71599191 65 34 C64.34 34 63.68 34 63 34 C62.5978125 35.0828125 62.5978125 35.0828125 62.1875 36.1875 C61.00098638 38.99766383 59.72514361 41.48416557 58 44 C57.34 44 56.68 44 56 44 C56.45822468 40.53058454 56.89131683 37.32604951 58 34 C57.40832031 34.26554687 56.81664063 34.53109375 56.20703125 34.8046875 C52.1650823 36.61136615 48.1300563 38.40126853 44 40 C44 40.66 44 41.32 44 42 C40.29207191 42.28328822 36.69795687 42.45269973 33 42 C30.73702662 39.54305747 30 38.3203746 30 35 C27.17669994 36.07949708 24.50895232 37.25033803 21.8125 38.625 C19 40 19 40 17 40 C17 40.66 17 41.32 17 42 C15.3973218 42.10824843 13.79254252 42.18570645 12.1875 42.25 C11.29417969 42.29640625 10.40085938 42.3428125 9.48046875 42.390625 C7 42 7 42 5.17578125 39.984375 C4.78777344 39.32953125 4.39976563 38.6746875 4 38 C2.56206608 38.31049726 1.1246682 38.6234776 -0.3125 38.9375 C-1.11300781 39.11152344 -1.91351563 39.28554687 -2.73828125 39.46484375 C-5.145401 39.99886159 -5.145401 39.99886159 -8 41 C-8.495 41.99 -8.495 41.99 -9 43 C-9.6297876 42.97905273 -10.2595752 42.95810547 -10.90844727 42.93652344 C-13.79296571 42.85279901 -16.67722768 42.80116379 -19.5625 42.75 C-20.55314453 42.71648437 -21.54378906 42.68296875 -22.56445312 42.6484375 C-29.10736241 42.56148854 -32.55570738 43.42546444 -38 47 C-40.65234375 47.609375 -40.65234375 47.609375 -42.9375 47.75 C-43.70964844 47.80671875 -44.48179688 47.8634375 -45.27734375 47.921875 C-46.13005859 47.96054688 -46.13005859 47.96054688 -47 48 C-42.76486783 44.03810217 -38.452999 42.56818272 -33 41 C-33.49113281 40.09507813 -33.49113281 40.09507813 -33.9921875 39.171875 C-35.17423027 36.62452701 -35.15421553 34.77587962 -35 32 C-30.42380243 31.92243733 -26.48677582 32.10264484 -22 33 C-20.515 32.505 -20.515 32.505 -19 32 C-18.67 31.01 -18.34 30.02 -18 29 C-17.34 29 -16.68 29 -16 29 C-15.566875 28.1028125 -15.566875 28.1028125 -15.125 27.1875 C-14 25 -14 25 -12 22 C-11.59659217 19.71962517 -11.27227138 17.42472075 -11 15.125 C-10.38796393 9.97733951 -9.78151462 5.46018685 -6.6875 1.1875 C-4.4011239 -0.42143133 -2.72977292 -0.22133294 0 0 Z " fill="#262122" transform="translate(56,39)"/>
<path d="M0 0 C5.59058457 3.06440427 9.28793506 6.912521 11.75 12.875 C12.65211649 20.21780863 12.29514606 26.84286171 7.75 32.875 C3.07912013 37.88701155 -2.25334461 40.99728645 -9.125 41.3125 C-15.15167547 41.09532251 -19.5974514 39.36250113 -24.0078125 35.2265625 C-28.58904916 30.15843112 -30.53533452 25.8005667 -30.5 18.875 C-30.50515625 17.864375 -30.5103125 16.85375 -30.515625 15.8125 C-30.03444515 10.49121695 -28.007755 6.632755 -24.25 2.875 C-15.99758137 -2.55226631 -9.10874109 -4.15013647 0 0 Z " fill="#F4F4F4" transform="translate(219.25,52.125)"/>
<path d="M0 0 C1.44064486 0.87850134 2.86215295 1.790259 4.25 2.75 C5.61125 3.5853125 5.61125 3.5853125 7 4.4375 C13.48735289 11.10505714 16.43305013 18.32786714 16.5 27.5 C16.520625 28.1909375 16.54125 28.881875 16.5625 29.59375 C16.60088173 34.69852042 15.52330153 38.17946746 13.25 42.75 C12.26 42.75 11.27 42.75 10.25 42.75 C11.1379056 37.16887906 11.1379056 37.16887906 11.76953125 34.80859375 C13.37410061 27.93373151 12.37434762 21.03217038 9.25 14.75 C5.07444405 8.31268457 -0.37745523 3.97200308 -7.75 1.75 C-15.59273589 0.68482073 -22.18951468 1.17571665 -28.75 5.75 C-29.801875 6.471875 -30.85375 7.19375 -31.9375 7.9375 C-38.05993728 14.05993728 -40.28985854 19.52333535 -40.5 28.125 C-40.43607628 36.14611336 -38.24731758 41.74606688 -32.75 47.75 C-25.3193143 55.03073913 -15.60890739 55.12560253 -5.75 55.75 C-5.75 56.41 -5.75 57.07 -5.75 57.75 C-10.81122078 60.28061039 -18.23777605 59.35556362 -23.5859375 58.06640625 C-32.96475919 54.58902774 -38.17176078 49.32494095 -42.59594727 40.421875 C-45.98300591 32.80074392 -46.11207947 24.50832571 -43.8125 16.5 C-40.28907097 8.84395095 -33.46122818 1.90491233 -25.75 -1.46875 C-17.38269342 -3.64773609 -7.88150162 -3.79916695 0 0 Z " fill="#181818" transform="translate(223.75,43.25)"/>
<path d="M0 0 C1.99140137 0.95324833 3.7233824 1.99060547 5.515625 3.27734375 C6.07894531 3.674375 6.64226562 4.07140625 7.22265625 4.48046875 C11.74950183 7.96096316 14.41060591 11.70420401 15.515625 17.27734375 C16.18250673 24.92742993 16.45535166 31.77981322 12.14453125 38.375 C9.35943251 41.62762131 6.1657387 44.06405413 2.515625 46.27734375 C1.92394531 46.65117188 1.33226562 47.025 0.72265625 47.41015625 C-4.95711503 49.64185399 -13.27563738 49.37804395 -19.03515625 47.40234375 C-25.47479558 43.60108092 -30.71042445 37.66293071 -33.0078125 30.5078125 C-34.59398731 23.08399431 -34.20127425 16.83877647 -30.11328125 10.3515625 C-22.28683063 0.38550667 -12.63259431 -3.67457539 0 0 Z M-26.546875 10.33984375 C-30.36402266 16.12713214 -30.09250135 22.5184537 -29.484375 29.27734375 C-27.498892 36.47770982 -22.42006552 40.93720344 -16.171875 44.65234375 C-8.88989429 46.34582764 -2.94365339 45.8894846 3.46875 41.91015625 C7.70659453 38.52958562 10.80276651 34.41591921 12.515625 29.27734375 C13.2166159 22.51778867 13.32332658 16.67011325 9.21484375 11.03125 C4.38734985 6.04838848 -1.50917146 2.23443139 -8.546875 1.90234375 C-15.50244046 1.99311785 -21.94153532 5.12399794 -26.546875 10.33984375 Z " fill="#191919" transform="translate(218.484375,47.72265625)"/>
<path d="M0 0 C2.11372405 1.57824729 4.03719091 3.22868448 6 5 C2.82852948 9.75720578 -0.59988395 12.31133495 -6 14 C-14.6997961 15.27032421 -21.4073134 13.1364689 -28.5625 8.25 C-29.036875 7.8375 -29.51125 7.425 -30 7 C-29.61151053 4.57064587 -29.29919704 3.2913441 -27.51171875 1.55078125 C-26.60873047 0.93783203 -26.60873047 0.93783203 -25.6875 0.3125 C-24.79611328 -0.31205078 -24.79611328 -0.31205078 -23.88671875 -0.94921875 C-16.6991675 -4.95222348 -6.89726856 -3.92197624 0 0 Z " fill="#121212" transform="translate(222,66)"/>
<path d="M0 0 C7.47948036 4.30526186 12.81808637 9.85969961 15.3125 18.25 C16.37227648 27.36407771 15.29484786 34.41371346 10.1171875 42.20703125 C6.11998951 47.21747245 1.94212651 50.53467442 -4.375 51.9375 C-7.13719539 52.17685358 -9.79935582 52.33970034 -12.5625 52.375 C-13.57848267 52.39046875 -13.57848267 52.39046875 -14.61499023 52.40625 C-21.08536152 52.29196894 -26.06786204 49.8584234 -30.8515625 45.54296875 C-37.3078783 38.73900517 -39.25494917 32.40003951 -39.08325195 23.20068359 C-38.60528433 15.3808198 -35.86596399 10.20798206 -30.1484375 4.8515625 C-21.26190651 -2.43004316 -10.87694219 -5.06369131 0 0 Z M-30.6875 9.375 C-35.94007148 16.05878986 -37.38552683 21.48582103 -36.375 29.9375 C-34.6333969 37.06977934 -31.28859266 42.53152286 -25.375 46.9375 C-18.60705393 50.979203 -12.05864828 50.90094191 -4.375 49.9375 C2.83245671 47.36542721 7.82967917 42.50578586 11.625 35.9375 C13.70429488 29.69961536 13.89042637 21.04052877 11.375 14.875 C7.25379141 7.95725702 2.33284566 3.50678189 -5.375 0.9375 C-16.55272105 -0.05670645 -23.11420308 1.08306907 -30.6875 9.375 Z " fill="#D3D3D3" transform="translate(221.375,46.0625)"/>
<path d="M0 0 C0.99 0 1.98 0 3 0 C3.33 1.98 3.66 3.96 4 6 C6.64 6.33 9.28 6.66 12 7 C10.84826645 9.46800047 9.95216435 11.04783565 8 13 C7.83318891 16.08347826 7.83318891 16.08347826 8 19 C8.99 19.33 9.98 19.66 11 20 C11 19.34 11 18.68 11 18 C16.445 15.03 16.445 15.03 22 12 C20.72869015 17.46663236 18.67252673 19.91436914 14 23 C10.375 24.125 10.375 24.125 7 24 C4.5625 22.125 4.5625 22.125 3 19 C2.82378384 16.61903276 2.87070685 14.368031 3.0546875 11.98828125 C3.22144877 9.7631835 3.22144877 9.7631835 1 8 C0.31292969 8.75925781 -0.37414062 9.51851562 -1.08203125 10.30078125 C-1.99214742 11.30472383 -2.9023059 12.30862807 -3.8125 13.3125 C-4.26431641 13.81201172 -4.71613281 14.31152344 -5.18164062 14.82617188 C-7.40219821 17.27364776 -9.63155925 19.69450785 -12 22 C-12.33 21.01 -12.66 20.02 -13 19 C-13.61875 19.495 -14.2375 19.99 -14.875 20.5 C-19.26029741 22.60494276 -23.21713261 22.25075227 -28 22 C-27.505 20.515 -27.505 20.515 -27 19 C-26.38253906 19.00902344 -25.76507813 19.01804687 -25.12890625 19.02734375 C-17.45127075 18.75856808 -13.61021811 15.99898812 -8 11 C-7.30132812 10.51660156 -6.60265625 10.03320312 -5.8828125 9.53515625 C-3.74319954 7.79061705 -2.89457919 6.30604752 -1.75 3.8125 C-1.24726563 2.73935547 -1.24726563 2.73935547 -0.734375 1.64453125 C-0.49203125 1.10183594 -0.2496875 0.55914062 0 0 Z " fill="#252427" transform="translate(151,59)"/>
<path d="M0 0 C5.52677733 -0.19392201 9.75614911 0.2520497 15 2 C15 3.32 15 4.64 15 6 C18.3 6.33 21.6 6.66 25 7 C25 7.66 25 8.32 25 9 C23.68 9 22.36 9 21 9 C21 9.66 21 10.32 21 11 C19.85402344 10.95359375 18.70804688 10.9071875 17.52734375 10.859375 C15.99742209 10.82183091 14.46747199 10.78543359 12.9375 10.75 C12.18533203 10.71648437 11.43316406 10.68296875 10.65820312 10.6484375 C4.84628416 10.54779821 1.89945185 11.9378426 -3 15 C-5.65234375 15.609375 -5.65234375 15.609375 -7.9375 15.75 C-9.09572266 15.83507812 -9.09572266 15.83507812 -10.27734375 15.921875 C-10.84582031 15.94765625 -11.41429687 15.9734375 -12 16 C-7.76486783 12.03810217 -3.452999 10.56818272 2 9 C1.67257813 8.39671875 1.34515625 7.7934375 1.0078125 7.171875 C-0.17423027 4.62452701 -0.15421553 2.77587962 0 0 Z " fill="#0C0908" transform="translate(21,71)"/>
<path d="M0 0 C9.22850766 -0.50644249 15.71430288 -0.41008669 22.93359375 5.61328125 C29.25638773 11.54172218 31.86071684 17.60361995 32.3125 26.1875 C32.17574427 34.42019467 28.59534687 41.415834 22.96875 47.3046875 C16.0125306 53.29476532 8.87478771 53.54059621 0 53 C0 52.67 0 52.34 0 52 C0.75023437 51.92523438 1.50046875 51.85046875 2.2734375 51.7734375 C10.64742024 50.69768657 17.82728054 48.53807277 23.6953125 42.15625 C28.86717203 35.181628 28.52041195 28.37390131 28 20 C26.59369048 13.47782435 22.22326366 9.62112975 17 5.8125 C11.34794157 2.3977147 6.49484196 1.53769933 0 1 C0 0.67 0 0.34 0 0 Z " fill="#D9D9D9" transform="translate(205,45)"/>
<path d="M0 0 C0.46107638 6.45506926 -0.55879055 10.52168663 -4 16 C-4.7734375 16.85078125 -4.7734375 16.85078125 -5.5625 17.71875 C-7.64199678 21.01882097 -7.82176905 24.45176661 -8.1875 28.25 C-8.26935547 28.99507812 -8.35121094 29.74015625 -8.43554688 30.5078125 C-8.63491994 32.33735356 -8.81898474 34.16855151 -9 36 C-9.33 36 -9.66 36 -10 36 C-10 33.03 -10 30.06 -10 27 C-11.32 27 -12.64 27 -14 27 C-13.690625 26.319375 -13.38125 25.63875 -13.0625 24.9375 C-11.85676587 21.60399977 -11.42445178 18.51688617 -11 15 C-10.38452942 9.90038662 -9.75263335 5.4203032 -6.6875 1.1875 C-4.4011239 -0.42143133 -2.72977292 -0.22133294 0 0 Z " fill="#352F32" transform="translate(56,39)"/>
<path d="M0 0 C0.33 0 0.66 0 1 0 C1.06316406 0.95519531 1.12632812 1.91039063 1.19140625 2.89453125 C2.14037091 12.91360027 4.31721176 20.38120712 11.734375 27.71484375 C18.97575358 33.44483368 28.16475233 33.44043431 37 34 C37 34.66 37 35.32 37 36 C31.93877922 38.53061039 24.51222395 37.60556362 19.1640625 36.31640625 C10.18127286 32.98586424 4.50415545 27.734575 0.09375 19.23046875 C-1.92312995 13.27346975 -1.64135671 7.21872452 -1 1 C-0.67 0.67 -0.34 0.34 0 0 Z " fill="#141414" transform="translate(181,65)"/>
<path d="M0 0 C3.22755165 0.4640032 5.0358401 1.59793524 7.4375 3.75 C8.03949219 4.28753906 8.64148438 4.82507813 9.26171875 5.37890625 C11.567912 7.52962579 13.80103507 9.73995271 16 12 C16.598125 12.495 17.19625 12.99 17.8125 13.5 C19.51035354 15.6446571 19.21486964 17.34994106 19 20 C16.75146484 20.70385742 16.75146484 20.70385742 14 21 C11.94775391 19.70825195 11.94775391 19.70825195 9.9765625 17.73828125 C9.26628906 17.03123047 8.55601562 16.32417969 7.82421875 15.59570312 C7.09847656 14.84224609 6.37273437 14.08878906 5.625 13.3125 C4.87605469 12.57837891 4.12710938 11.84425781 3.35546875 11.08789062 C-0.71230686 6.95667265 -0.71230686 6.95667265 -2 5 C-1.76468302 2.82197809 -1.56240255 1.56240255 0 0 Z " fill="#ECECEC" transform="translate(244,104)"/>
<path d="M0 0 C0.33 0 0.66 0 1 0 C1 4.29 1 8.58 1 13 C3.413125 12.443125 3.413125 12.443125 5.875 11.875 C8.6171875 11.2421875 8.6171875 11.2421875 11 11 C11.66 11.66 12.32 12.32 13 13 C12.14535156 13.26554687 11.29070313 13.53109375 10.41015625 13.8046875 C9.30542969 14.15789062 8.20070313 14.51109375 7.0625 14.875 C5.96035156 15.22304687 4.85820313 15.57109375 3.72265625 15.9296875 C0.87121196 16.70024295 0.87121196 16.70024295 0 19 C-1.65 18.67 -3.3 18.34 -5 18 C-3.68 17.67 -2.36 17.34 -1 17 C-1 16.34 -1 15.68 -1 15 C-2.093125 15.020625 -3.18625 15.04125 -4.3125 15.0625 C-8 15 -8 15 -11 14 C-11 12.68 -11 11.36 -11 10 C-11.66 9.67 -12.32 9.34 -13 9 C-12.01 8.67 -11.02 8.34 -10 8 C-9.67 7.01 -9.34 6.02 -9 5 C-8.34 5 -7.68 5 -7 5 C-6.67 4.01 -6.34 3.02 -6 2 C-4.35 2.33 -2.7 2.66 -1 3 C-0.67 2.01 -0.34 1.02 0 0 Z " fill="#2D3745" transform="translate(47,63)"/>
<path d="M0 0 C0.33 0 0.66 0 1 0 C1.09796875 0.86882812 1.1959375 1.73765625 1.296875 2.6328125 C2.32612828 10.56516105 3.40125119 15.67807802 9.4375 21.25 C15.1863467 25.17604165 20.16178645 25.56712457 27 25 C30.4614054 24.12899451 30.4614054 24.12899451 33 23 C33 26 33 26 31.453125 27.65625 C26.2377959 30.51305448 19.75321787 29.63655203 14 29 C8.04958423 26.9497036 3.41773755 22.19780919 0 17 C-0.9375 14.125 -0.9375 14.125 -1 12 C-0.67 11.67 -0.34 11.34 0 11 C0.07226502 9.14712498 0.0838122 7.29166122 0.0625 5.4375 C0.05347656 4.42558594 0.04445312 3.41367188 0.03515625 2.37109375 C0.02355469 1.58863281 0.01195312 0.80617188 0 0 Z " fill="#1F1F1F" transform="translate(188,67)"/>
<path d="M0 0 C3.1875 -0.3125 3.1875 -0.3125 6 0 C5.61708885 6.03085058 4.62154435 10.53960349 1.9375 15.95703125 C1.01770338 17.96142139 0.46399906 19.84917104 0 22 C-1.32 22 -2.64 22 -4 22 C-2.80771472 17.2308589 -1.20458837 13.14073277 1.09765625 8.796875 C2.13054692 6.84692807 2.13054692 6.84692807 3 4 C-1.61275464 7.96775081 -2.78154884 12.46479212 -4.65625 18.1015625 C-6 21 -6 21 -8.15625 22.3984375 C-8.7646875 22.59695312 -9.373125 22.79546875 -10 23 C-8.7877488 16.05710674 -6.62244847 11.00258288 -3 5 C-2.525625 3.989375 -2.05125 2.97875 -1.5625 1.9375 C-1.046875 1.298125 -0.53125 0.65875 0 0 Z " fill="#403835" transform="translate(126,40)"/>
<path d="M0 0 C0.34934248 2.93447681 0.51495218 5.14367502 -1.04296875 7.734375 C-2.375 9.375 -2.375 9.375 -5 12 C-5.66 12 -6.32 12 -7 12 C-6.01 9.03 -5.02 6.06 -4 3 C-4.78375 3.495 -5.5675 3.99 -6.375 4.5 C-9 6 -9 6 -11 6 C-11.12375 6.5775 -11.2475 7.155 -11.375 7.75 C-12.00648824 10.02335767 -12.88858191 11.9253529 -14 14 C-13.34 14 -12.68 14 -12 14 C-12 14.66 -12 15.32 -12 16 C-13.98 16 -15.96 16 -18 16 C-18.75 14.4375 -18.75 14.4375 -19 12 C-16.41339086 5.81463031 -12.94768639 2.95552383 -7 0 C-3.86650268 -1.04449911 -3.01031744 -0.93423645 0 0 Z " fill="#26272B" transform="translate(105,58)"/>
<path d="M0 0 C1.65 0 3.3 0 5 0 C3.125 3.875 3.125 3.875 2 5 C1.95919217 6.99958364 1.95745644 9.00045254 2 11 C2.99 11.33 3.98 11.66 5 12 C5 11.34 5 10.68 5 10 C8.63 8.02 12.26 6.04 16 4 C14.72869015 9.46663236 12.67252673 11.91436914 8 15 C4.375 16.125 4.375 16.125 1 16 C-1.4375 13.9375 -1.4375 13.9375 -3 11 C-3.25 7.6875 -3.25 7.6875 -3 5 C-2.34 5 -1.68 5 -1 5 C-0.67 3.35 -0.34 1.7 0 0 Z " fill="#191619" transform="translate(157,67)"/>
<path d="M0 0 C0 0.99 0 1.98 0 3 C-2.48479386 4.65652924 -4.9636255 6.16072474 -7.5625 7.625 C-8.34753906 8.07101563 -9.13257812 8.51703125 -9.94140625 8.9765625 C-12 10 -12 10 -14 10 C-14 10.66 -14 11.32 -14 12 C-17.63 12 -21.26 12 -25 12 C-24.67 11.01 -24.34 10.02 -24 9 C-19.545 8.505 -19.545 8.505 -15 8 C-15 7.34 -15 6.68 -15 6 C-14.195625 5.7525 -13.39125 5.505 -12.5625 5.25 C-8.25675857 3.73921353 -4.14635993 1.89811144 0 0 Z " fill="#403933" transform="translate(114,69)"/>
<path d="M0 0 C9.27884471 -0.50920489 15.67907711 -0.3602007 22.96875 5.61328125 C26.69852189 9.06026306 28.88287109 11.91085717 30 17 C29.34 17.33 28.68 17.66 28 18 C27.6596875 17.40832031 27.319375 16.81664063 26.96875 16.20703125 C23.41753579 10.41741872 20.08123994 7.01517545 14 4 C13.195625 3.5875 12.39125 3.175 11.5625 2.75 C7.76859292 1.63958817 3.93006543 1.32536489 0 1 C0 0.67 0 0.34 0 0 Z " fill="#DEDEDE" transform="translate(205,45)"/>
<path d="M0 0 C0.66 0 1.32 0 2 0 C1.34782873 5.01670207 -0.78631151 9.23440787 -2.9375 13.75 C-3.29779297 14.52988281 -3.65808594 15.30976562 -4.02929688 16.11328125 C-4.37927734 16.85449219 -4.72925781 17.59570312 -5.08984375 18.359375 C-5.40816162 19.03452148 -5.72647949 19.70966797 -6.05444336 20.40527344 C-7 22 -7 22 -9 23 C-9.53282135 14.93367681 -4.99337171 6.19866832 0 0 Z " fill="#D9E9EF" transform="translate(127,44)"/>
<path d="M0 0 C1.74216797 0.02707031 1.74216797 0.02707031 3.51953125 0.0546875 C4.39996094 0.07789063 5.28039062 0.10109375 6.1875 0.125 C5.1975 1.61 5.1975 1.61 4.1875 3.125 C1.6484375 3.4609375 1.6484375 3.4609375 -1.4375 3.5 C-8.1181769 3.88496097 -12.78765158 5.8293851 -17.33984375 10.7890625 C-18.8125 12.125 -18.8125 12.125 -21.8125 12.125 C-20.41674517 8.81813471 -18.8877907 7.10924674 -16 5 C-15.33355469 4.50242187 -14.66710937 4.00484375 -13.98046875 3.4921875 C-9.24860799 0.50813117 -5.58540923 -0.11283655 0 0 Z " fill="#CBCBCB" transform="translate(209.8125,43.875)"/>
<path d="M0 0 C1 3 1 3 -0.4375 5.9375 C-2.8574213 11.04133402 -2.24464835 16.48182048 -2 22 C-2.99 22.33 -3.98 22.66 -5 23 C-6.57708029 17.52509526 -7.17003718 11.17739955 -5.17578125 5.76171875 C-3.75856911 3.21705904 -2.65077944 1.32538972 0 0 Z " fill="#121212" transform="translate(191,57)"/>
<path d="M0 0 C0 1.32 0 2.64 0 4 C3.3 4.33 6.6 4.66 10 5 C10 5.66 10 6.32 10 7 C8.68 7 7.36 7 6 7 C6 7.66 6 8.32 6 9 C1.38 9 -3.24 9 -8 9 C-8 8.67 -8 8.34 -8 8 C-6.02 7.67 -4.04 7.34 -2 7 C-1.67 6.01 -1.34 5.02 -1 4 C-2.65 4 -4.3 4 -6 4 C-6 3.01 -6 2.02 -6 1 C-3.92446352 0.4465236 -2.15634036 0 0 0 Z " fill="#1B1A1B" transform="translate(36,73)"/>
<path d="M0 0 C1.24523437 0.02707031 2.49046875 0.05414063 3.7734375 0.08203125 C4.71445313 0.11683594 5.65546875 0.15164062 6.625 0.1875 C6.625 0.5175 6.625 0.8475 6.625 1.1875 C0.685 1.6825 0.685 1.6825 -5.375 2.1875 C-5.045 2.8475 -4.715 3.5075 -4.375 4.1875 C-5.40560547 4.67669922 -5.40560547 4.67669922 -6.45703125 5.17578125 C-7.35808594 5.61277344 -8.25914062 6.04976562 -9.1875 6.5 C-10.08082031 6.92925781 -10.97414062 7.35851563 -11.89453125 7.80078125 C-14.16431933 9.06971789 -15.66748171 10.25306898 -17.375 12.1875 C-18.365 11.5275 -19.355 10.8675 -20.375 10.1875 C-19.34361354 9.07372469 -18.29925992 7.97195355 -17.25 6.875 C-16.66992188 6.26011719 -16.08984375 5.64523438 -15.4921875 5.01171875 C-10.56209727 0.76383658 -6.4272679 -0.18190381 0 0 Z " fill="#1E1E1E" transform="translate(209.375,46.8125)"/>
<path d="M0 0 C0.66 0 1.32 0 2 0 C3.37367325 8.2420395 3.80940924 14.38118152 0 22 C-0.99 22 -1.98 22 -3 22 C-2.85691406 21.18273437 -2.71382812 20.36546875 -2.56640625 19.5234375 C-1.9302297 15.56598062 -1.42308174 11.60317338 -0.9375 7.625 C-0.84662109 6.88894531 -0.75574219 6.15289062 -0.66210938 5.39453125 C-0.44027356 3.59649355 -0.2199779 1.79826595 0 0 Z " fill="#0C0C0C" transform="translate(237,64)"/>
<path d="M0 0 C0.99 0.33 1.98 0.66 3 1 C2.875 3.8125 2.875 3.8125 2 7 C-1.65024621 9.43349748 -3.57704202 10 -8 10 C-7.4346089 6.49304707 -6.31277274 4.97267387 -3.625 2.6875 C-3.01914063 2.15511719 -2.41328125 1.62273438 -1.7890625 1.07421875 C-0.90347656 0.54248047 -0.90347656 0.54248047 0 0 Z " fill="#CFD6DB" transform="translate(131,60)"/>
<path d="M0 0 C0.8971875 0.309375 0.8971875 0.309375 1.8125 0.625 C1.4825 1.285 1.1525 1.945 0.8125 2.625 C0.1525 2.625 -0.5075 2.625 -1.1875 2.625 C-1.31125 3.2025 -1.435 3.78 -1.5625 4.375 C-2.19398824 6.64835767 -3.07608191 8.5503529 -4.1875 10.625 C-3.5275 10.625 -2.8675 10.625 -2.1875 10.625 C-2.1875 11.285 -2.1875 11.945 -2.1875 12.625 C-4.1675 12.625 -6.1475 12.625 -8.1875 12.625 C-8.9375 11.0625 -8.9375 11.0625 -9.1875 8.625 C-7.52526067 4.56877467 -5.11883633 -0.8775148 0 0 Z " fill="#312927" transform="translate(95.1875,61.375)"/>
<path d="M0 0 C4.92127034 -0.16682272 8.50343896 -0.24828052 13 2 C11.68 2.33 10.36 2.66 9 3 C9 3.99 9 4.98 9 6 C10.65 6 12.3 6 14 6 C14 6.66 14 7.32 14 8 C12.37419034 7.88601335 10.74932843 7.75844341 9.125 7.625 C8.22007813 7.55539063 7.31515625 7.48578125 6.3828125 7.4140625 C4 7 4 7 2 5 C2 4.01 2 3.02 2 2 C1.34 1.34 0.68 0.68 0 0 Z " fill="#69696A" transform="translate(21,71)"/>
<path d="M0 0 C0.66 0 1.32 0 2 0 C2 3.63 2 7.26 2 11 C0.02 11 -1.96 11 -4 11 C-4 10.34 -4 9.68 -4 9 C-4.66 9 -5.32 9 -6 9 C-4.4722133 5.56247993 -2.49818944 2.81046312 0 0 Z " fill="#CBCFD0" transform="translate(43,67)"/>
<path d="M0 0 C0.33 0.99 0.66 1.98 1 3 C0.70351562 3.58265625 0.40703125 4.1653125 0.1015625 4.765625 C-1.37857004 7.76787965 -1.42531483 10.42191391 -1.625 13.75 C-1.73714844 15.50570312 -1.73714844 15.50570312 -1.8515625 17.296875 C-1.92503906 18.63492188 -1.92503906 18.63492188 -2 20 C-2.33 20 -2.66 20 -3 20 C-3.33 16.7 -3.66 13.4 -4 10 C-4.33 13.96 -4.66 17.92 -5 22 C-5.33 22 -5.66 22 -6 22 C-6.0544452 19.79194476 -6.09299283 17.58349446 -6.125 15.375 C-6.14820313 14.14523438 -6.17140625 12.91546875 -6.1953125 11.6484375 C-6.00119195 8.02226564 -5.42633589 5.32811707 -4 2 C-1.875 0.625 -1.875 0.625 0 0 Z " fill="#343434" transform="translate(185,56)"/>
<path d="M0 0 C0 2 0 4 0 6 C0.66 6.66 1.32 7.32 2 8 C1 9 1 9 -1.5625 9.0625 C-2.366875 9.041875 -3.17125 9.02125 -4 9 C-4 9.66 -4 10.32 -4 11 C-6.64 11 -9.28 11 -12 11 C-12 10.34 -12 9.68 -12 9 C-11.360625 8.87625 -10.72125 8.7525 -10.0625 8.625 C-9.381875 8.41875 -8.70125 8.2125 -8 8 C-7.67 7.34 -7.34 6.68 -7 6 C-6.34 6 -5.68 6 -5 6 C-5 5.34 -5 4.68 -5 4 C-3.37373596 2.61767557 -1.7074998 1.28062485 0 0 Z " fill="#E1E4E8" transform="translate(103,66)"/>
<path d="M0 0 C0.66 0 1.32 0 2 0 C1.33585919 3.98484488 0.14488176 7.51016972 -1.375 11.25 C-1.79523438 12.30703125 -2.21546875 13.3640625 -2.6484375 14.453125 C-4 17 -4 17 -7 18 C-5.79662881 11.10796502 -3.67864914 5.93919307 0 0 Z " fill="#292327" transform="translate(123,45)"/>
<path d="M0 0 C0.33 0.66 0.66 1.32 1 2 C-1.94928226 7.19073678 -4.48675646 9.58191073 -10 12 C-12.9375 11.75 -12.9375 11.75 -15 11 C-15 10.67 -15 10.34 -15 10 C-13.02 10 -11.04 10 -9 10 C-9.33 8.68 -9.66 7.36 -10 6 C-6.7 4.02 -3.4 2.04 0 0 Z " fill="#413F3F" transform="translate(172,71)"/>
<path d="M0 0 C0.99 0.33 1.98 0.66 3 1 C2.360625 2.051875 1.72125 3.10375 1.0625 4.1875 C-1.81640463 9.83340838 -1.81005418 15.76977695 -2 22 C-2.66 22 -3.32 22 -4 22 C-4.738041 6.07061503 -4.738041 6.07061503 0 0 Z " fill="#DADADA" transform="translate(187,56)"/>
<path d="M0 0 C0.78375 0.04125 1.5675 0.0825 2.375 0.125 C2.375 2.765 2.375 5.405 2.375 8.125 C1.715 7.795 1.055 7.465 0.375 7.125 C-0.945 9.435 -2.265 11.745 -3.625 14.125 C-3.955 14.125 -4.285 14.125 -4.625 14.125 C-3.625 6.69642857 -3.625 6.69642857 -2.625 3.125 C-3.285 2.795 -3.945 2.465 -4.625 2.125 C-2.625 0.125 -2.625 0.125 0 0 Z " fill="#6B6D72" transform="translate(53.625,38.875)"/>
<path d="M0 0 C1.65 0.33 3.3 0.66 5 1 C5 4.63 5 8.26 5 12 C4.67 12 4.34 12 4 12 C4 8.7 4 5.4 4 2 C3.34 2 2.68 2 2 2 C1.7525 2.556875 1.505 3.11375 1.25 3.6875 C-0.21606015 6.39971127 -2.02989471 8.63587365 -4 11 C-3.34 11.33 -2.68 11.66 -2 12 C-2.99 12 -3.98 12 -5 12 C-5 10.68 -5 9.36 -5 8 C-5.66 7.67 -6.32 7.34 -7 7 C-6.01 6.67 -5.02 6.34 -4 6 C-3.67 5.01 -3.34 4.02 -3 3 C-2.34 3 -1.68 3 -1 3 C-0.67 2.01 -0.34 1.02 0 0 Z " fill="#393531" transform="translate(41,65)"/>
<path d="M0 0 C0.66 0 1.32 0 2 0 C0.60802671 3.38256721 -0.8025496 4.83688682 -3.9375 6.6875 C-4.62714844 7.10386719 -5.31679687 7.52023438 -6.02734375 7.94921875 C-9.85984578 9.99069013 -12.91468429 10.10844425 -17.1875 10.0625 C-18.81751953 10.04896484 -18.81751953 10.04896484 -20.48046875 10.03515625 C-21.31191406 10.02355469 -22.14335937 10.01195313 -23 10 C-23 9.67 -23 9.34 -23 9 C-22.24976563 8.92523438 -21.49953125 8.85046875 -20.7265625 8.7734375 C-12.97350638 7.77745296 -5.70458757 5.70458757 0 0 Z " fill="#E1E1E1" transform="translate(228,88)"/>
<path d="M0 0 C0.33 0 0.66 0 1 0 C1.875 2.6875 1.875 2.6875 2 6 C-2.14188945 10.67290092 -5.96156976 11.85478047 -12 13 C-12 11.02 -12 9.04 -12 7 C-11.67 7.66 -11.34 8.32 -11 9 C-7.85835465 8.26307084 -4.89403604 7.44437265 -2 6 C-0.31963489 2.97115156 -0.31963489 2.97115156 0 0 Z " fill="#2B2C2E" transform="translate(134,61)"/>
<path d="M0 0 C0 2.97 0 5.94 0 9 C-4.31392226 8.5206753 -6.16569547 7.2542015 -9 4 C-3.375 0 -3.375 0 0 0 Z " fill="#D1D1D1" transform="translate(205,67)"/>
<path d="M0 0 C2.63840764 1.03937271 3.54887645 2.4663835 5.0625 4.8125 C-0.5625 9.6875 -0.5625 9.6875 -3.9375 10.8125 C-3.9375 6.8125 -3.9375 6.8125 -2.4375 5.0625 C-1.695 4.44375 -1.695 4.44375 -0.9375 3.8125 C-1.9275 2.8225 -2.9175 1.8325 -3.9375 0.8125 C-1.9375 -0.1875 -1.9375 -0.1875 0 0 Z " fill="#161616" transform="translate(222.9375,67.1875)"/>
<path d="M0 0 C0.66 0.33 1.32 0.66 2 1 C2.625 3.5625 2.625 3.5625 3 6 C2.01 6.495 2.01 6.495 1 7 C0.67 6.01 0.34 5.02 0 4 C-0.61875 4.495 -1.2375 4.99 -1.875 5.5 C-6.26029741 7.60494276 -10.21713261 7.25075227 -15 7 C-14.67 6.01 -14.34 5.02 -14 4 C-13.32453125 3.96261719 -12.6490625 3.92523438 -11.953125 3.88671875 C-11.06109375 3.82097656 -10.1690625 3.75523438 -9.25 3.6875 C-8.36828125 3.62949219 -7.4865625 3.57148437 -6.578125 3.51171875 C-3.67696226 2.9358819 -2.20774393 1.92403852 0 0 Z " fill="#454242" transform="translate(138,74)"/>
<path d="M0 0 C1 1 1 1 1.0625 4.5625 C1.041875 5.696875 1.02125 6.83125 1 8 C0.34 8 -0.32 8 -1 8 C-1 6.35 -1 4.7 -1 3 C-5.87362847 3.45336079 -8.39042389 4.7089159 -12 8 C-12 4 -12 4 -9.9375 1.75 C-6.35258591 -0.3856935 -4.10677424 -0.39488214 0 0 Z " fill="#131821" transform="translate(136,58)"/>
<path d="M0 0 C5.75 1.625 5.75 1.625 8 5 C5.75 7.0625 5.75 7.0625 3 9 C0.6875 8.75 0.6875 8.75 -1 8 C-0.835 7.236875 -0.67 6.47375 -0.5 5.6875 C0.09145396 2.96403764 0.09145396 2.96403764 0 0 Z " fill="#DADADA" transform="translate(215,67)"/>
<path d="M0 0 C0.17942163 3.94727588 0.09350689 6.5980513 -2 10 C-2.99 9.67 -3.98 9.34 -5 9 C-4.34 7.02 -3.68 5.04 -3 3 C-4.32 3 -5.64 3 -7 3 C-7 2.01 -7 1.02 -7 0 C-3.86650268 -1.04449911 -3.01031744 -0.93423645 0 0 Z " fill="#18181C" transform="translate(78,58)"/>
<path d="M0 0 C0.66 0 1.32 0 2 0 C1.74528401 2.93972221 1.47200125 5.87564064 1.1875 8.8125 C1.11724609 9.64587891 1.04699219 10.47925781 0.97460938 11.33789062 C0.89404297 12.14033203 0.81347656 12.94277344 0.73046875 13.76953125 C0.66239014 14.50792236 0.59431152 15.24631348 0.52416992 16.00708008 C-0.11004205 18.41838529 -1.12441153 19.4065212 -3 21 C-3.33 20.01 -3.66 19.02 -4 18 C-3.34 18 -2.68 18 -2 18 C-2.02320313 17.20335938 -2.04640625 16.40671875 -2.0703125 15.5859375 C-2.24956063 5.06151142 -2.24956063 5.06151142 0 0 Z " fill="#F7ECD8" transform="translate(45,43)"/>
<path d="M0 0 C0.99 0 1.98 0 3 0 C1.5666944 5.01656959 -0.90563952 7.01452882 -5 10 C-5.66 10 -6.32 10 -7 10 C-6.52727227 5.74545047 -4.03562624 3.80795427 -1 1 C-0.67 0.67 -0.34 0.34 0 0 Z " fill="#D5D6D6" transform="translate(72,61)"/>
<path d="M0 0 C-1.4317521 5.01113235 -3.98445693 6.94469549 -8 10 C-8.8125 8.375 -8.8125 8.375 -9 6 C-4.96153846 0 -4.96153846 0 0 0 Z " fill="#191820" transform="translate(148,69)"/>
<path d="M0 0 C0.33 0.99 0.66 1.98 1 3 C1.99 3 2.98 3 4 3 C3.79503906 3.51046875 3.59007812 4.0209375 3.37890625 4.546875 C0.99030189 10.99267815 0.33564879 17.1597091 0 24 C-0.33 24 -0.66 24 -1 24 C-1 21.03 -1 18.06 -1 15 C-1.66 14.67 -2.32 14.34 -3 14 C-2.34 13.01 -1.68 12.02 -1 11 C-0.54227937 8.26127045 -0.54227937 8.26127045 -0.375 5.3125 C-0.30023438 4.31863281 -0.22546875 3.32476562 -0.1484375 2.30078125 C-0.09945312 1.54152344 -0.05046875 0.78226563 0 0 Z " fill="#030717" transform="translate(47,51)"/>
<path d="M0 0 C0.33 0.66 0.66 1.32 1 2 C1.99 1.34 2.98 0.68 4 0 C4.99 0.33 5.98 0.66 7 1 C6.34 1 5.68 1 5 1 C4.731875 1.721875 4.46375 2.44375 4.1875 3.1875 C3.00098638 5.99766383 1.72514361 8.48416557 0 11 C-0.66 11 -1.32 11 -2 11 C-1 3.57142857 -1 3.57142857 0 0 Z " fill="#211919" transform="translate(114,72)"/>
<path d="M0 0 C2.45862401 -0.05383848 4.9160755 -0.09359038 7.375 -0.125 C8.42300781 -0.15013672 8.42300781 -0.15013672 9.4921875 -0.17578125 C11.32897486 -0.19344267 13.16601963 -0.10303261 15 0 C15.66 0.66 16.32 1.32 17 2 C16.67 2.33 16.34 2.66 16 3 C13.13311752 2.90903444 10.29699485 2.76232012 7.4375 2.5625 C6.63119141 2.51029297 5.82488281 2.45808594 4.99414062 2.40429688 C2.99578262 2.27422624 0.99784614 2.13770944 -1 2 C-0.67 1.34 -0.34 0.68 0 0 Z " fill="#080808" transform="translate(204,48)"/>
<path d="M0 0 C-0.6875 1.9375 -0.6875 1.9375 -2 4 C-4.625 4.75 -4.625 4.75 -7 5 C-7 4.34 -7 3.68 -7 3 C-10.96 3 -14.92 3 -19 3 C-19 2.67 -19 2.34 -19 2 C-18.26394531 1.95101562 -17.52789062 1.90203125 -16.76953125 1.8515625 C-15.79371094 1.77679688 -14.81789062 1.70203125 -13.8125 1.625 C-12.84957031 1.55539063 -11.88664063 1.48578125 -10.89453125 1.4140625 C-7.97322364 1.11722447 -7.97322364 1.11722447 -5.32421875 -0.1015625 C-3 -1 -3 -1 0 0 Z " fill="#3D3D3D" transform="translate(225,96)"/>
<path d="M0 0 C0.99 0.33 1.98 0.66 3 1 C3 2.65 3 4.3 3 6 C2.34 5.34 1.68 4.68 1 4 C-0.98 5.98 -2.96 7.96 -5 10 C-4.34 10.66 -3.68 11.32 -3 12 C-4.98 12.66 -6.96 13.32 -9 14 C-9 10 -9 10 -7.5390625 8.4375 C-6.90742188 7.963125 -6.27578125 7.48875 -5.625 7 C-2.84668143 4.8962526 -1.37499323 3.22220637 0 0 Z " fill="#232323" transform="translate(233,84)"/>
<path d="M0 0 C0.515625 0.391875 1.03125 0.78375 1.5625 1.1875 C-3.81649794 4.73534971 -8.01826669 5.89637831 -14.4375 6.1875 C-5.3625 -1.7875 -5.3625 -1.7875 0 0 Z " fill="#323030" transform="translate(23.4375,80.8125)"/>
<path d="M0 0 C0.66 0.33 1.32 0.66 2 1 C1.34 2.32 0.68 3.64 0 5 C-0.66 5 -1.32 5 -2 5 C-2 5.99 -2 6.98 -2 8 C-4.70879335 9.35439668 -7.00933268 9.06501451 -10 9 C-10 8.34 -10 7.68 -10 7 C-8.06640625 5.52734375 -8.06640625 5.52734375 -5.5625 3.9375 C-2.6281857 2.16321108 -2.6281857 2.16321108 0 0 Z " fill="#DDE3EA" transform="translate(74,68)"/>
<path d="M0 0 C-0.125 2.25 -0.125 2.25 -1 5 C-6.08108108 9 -6.08108108 9 -9 9 C-8.09729807 5.30712847 -7.59508949 3.44631711 -4.5 1.125 C-2 0 -2 0 0 0 Z " fill="#DBDCDA" transform="translate(101,61)"/>
<path d="M0 0 C-0.33 0.99 -0.66 1.98 -1 3 C-4.63 3 -8.26 3 -12 3 C-11.67 2.01 -11.34 1.02 -11 0 C-3.57142857 -1.28571429 -3.57142857 -1.28571429 0 0 Z " fill="#1C1B1C" transform="translate(101,78)"/>
<path d="M0 0 C2 0 2 0 3.69140625 1.64453125 C4.30886719 2.35996094 4.92632812 3.07539062 5.5625 3.8125 C6.18253906 4.52019531 6.80257812 5.22789063 7.44140625 5.95703125 C9 8 9 8 10 11 C6.49411644 10.43601004 5.01017608 9.33036227 2.75 6.625 C2.22921875 6.01914063 1.7084375 5.41328125 1.171875 4.7890625 C0 3 0 3 0 0 Z " fill="#D9D9D9" transform="translate(232,92)"/>
<path d="M0 0 C-0.33 0.99 -0.66 1.98 -1 3 C-4.3 3 -7.6 3 -11 3 C-11 2.01 -11 1.02 -11 0 C-3.57142857 -1.28571429 -3.57142857 -1.28571429 0 0 Z " fill="#171617" transform="translate(74,78)"/>
<path d="M0 0 C0.33 0.66 0.66 1.32 1 2 C0.71125 2.78375 0.4225 3.5675 0.125 4.375 C-1.46918066 9.51180435 -1.67116077 14.65203572 -2 20 C-0.68 20.33 0.64 20.66 2 21 C0.35 21 -1.3 21 -3 21 C-3.08107646 18.24940619 -3.14052813 15.50120979 -3.1875 12.75 C-3.21263672 11.97269531 -3.23777344 11.19539063 -3.26367188 10.39453125 C-3.33834499 4.57002825 -3.33834499 4.57002825 -1.48828125 1.453125 C-0.99714844 0.97359375 -0.50601563 0.4940625 0 0 Z " fill="#C2D3E0" transform="translate(51,55)"/>
<path d="M0 0 C0.66 0 1.32 0 2 0 C1.34580901 5.06998019 -0.8546409 9.41990777 -3 14 C-3.96484618 10.94807521 -4.00348185 8.9628162 -3.1875 5.875 C-3.01605469 5.19179688 -2.84460938 4.50859375 -2.66796875 3.8046875 C-2 2 -2 2 0 0 Z " fill="#EBE9E1" transform="translate(127,44)"/>
<path d="M0 0 C0.33 1.32 0.66 2.64 1 4 C-4.75 9 -4.75 9 -7 9 C-7 8.34 -7 7.68 -7 7 C-7.66 7 -8.32 7 -9 7 C-8.67 6.01 -8.34 5.02 -8 4 C-8 4.66 -8 5.32 -8 6 C-5.36 4.02 -2.72 2.04 0 0 Z " fill="#2C2D30" transform="translate(73,65)"/>
<path d="M0 0 C1.17046875 0.03609375 2.3409375 0.0721875 3.546875 0.109375 C4.43890625 0.15578125 5.3309375 0.2021875 6.25 0.25 C5.26 1.735 5.26 1.735 4.25 3.25 C1.640379 3.63411275 -0.7558074 3.85293197 -3.375 3.9375 C-4.43460938 3.98874023 -4.43460938 3.98874023 -5.515625 4.04101562 C-7.25985688 4.12351308 -9.00490395 4.18843335 -10.75 4.25 C-7.43152371 0.07726249 -5.22729025 -0.20909161 0 0 Z " fill="#A5A5A5" transform="translate(209.75,43.75)"/>
<path d="M0 0 C0.99 0 1.98 0 3 0 C3 1.65 3 3.3 3 5 C-0.465 6.485 -0.465 6.485 -4 8 C-3.40353695 4.65980694 -2.31705841 2.49529367 0 0 Z " fill="#F7F1E8" transform="translate(130,62)"/>
<path d="M0 0 C0.66 0 1.32 0 2 0 C2.08142927 1.7492214 2.13938541 3.49954542 2.1875 5.25 C2.22230469 6.22453125 2.25710937 7.1990625 2.29296875 8.203125 C1.95840784 11.39706651 1.23334367 12.72880304 -1 15 C-1.66 15 -2.32 15 -3 15 C-2.690625 14.38125 -2.38125 13.7625 -2.0625 13.125 C-0.5960722 8.81197706 -0.33380974 4.5240004 0 0 Z " fill="#301C0F" transform="translate(45,51)"/>
<path d="M0 0 C0.928125 0.144375 1.85625 0.28875 2.8125 0.4375 C7.85405316 1.16364963 12.92629204 1.5687807 18 2 C18 2.33 18 2.66 18 3 C5.33029613 4.70159453 5.33029613 4.70159453 0 1 C0 0.67 0 0.34 0 0 Z " fill="#BEBEBE" transform="translate(195,94)"/>
<path d="M0 0 C0.66 0.33 1.32 0.66 2 1 C2 1.99 2 2.98 2 4 C-1.74235319 6.44989101 -5.44225419 6.23086143 -9.75 6.125 C-10.44738281 6.11597656 -11.14476562 6.10695313 -11.86328125 6.09765625 C-13.57566958 6.07419888 -15.28788004 6.03833104 -17 6 C-17 5.67 -17 5.34 -17 5 C-12.38 5 -7.76 5 -3 5 C-2.67 3.68 -2.34 2.36 -2 1 C-1.34 0.67 -0.68 0.34 0 0 Z " fill="#303030" transform="translate(219,90)"/>
<path d="M0 0 C0.66 0.33 1.32 0.66 2 1 C0.25 6.75 0.25 6.75 -2 9 C-2.99 9 -3.98 9 -5 9 C-4.690625 8.236875 -4.38125 7.47375 -4.0625 6.6875 C-3.32106407 4.81210323 -2.63771783 2.91315348 -2 1 C-1.34 0.67 -0.68 0.34 0 0 Z " fill="#212121" transform="translate(232,76)"/>
<path d="M0 0 C0.66 0.33 1.32 0.66 2 1 C2 4.63 2 8.26 2 12 C-0.0625 10.25 -0.0625 10.25 -2 8 C-1.8125 6 -1.8125 6 -1 4 C-0.814375 3.2575 -0.62875 2.515 -0.4375 1.75 C-0.293125 1.1725 -0.14875 0.595 0 0 Z " fill="#E9DCC7" transform="translate(153,68)"/>
<path d="M0 0 C0 1.65 0 3.3 0 5 C0.66 5 1.32 5 2 5 C2 5.66 2 6.32 2 7 C0.02 7 -1.96 7 -4 7 C-4.33 6.01 -4.66 5.02 -5 4 C-1.125 0 -1.125 0 0 0 Z " fill="#040205" transform="translate(91,67)"/>
<path d="M0 0 C0.66 0 1.32 0 2 0 C3.0625 2.375 3.0625 2.375 4 5 C3.67 5.66 3.34 6.32 3 7 C0.9375 7.625 0.9375 7.625 -1 8 C-1.125 2.25 -1.125 2.25 0 0 Z " fill="#18110F" transform="translate(116,63)"/>
<path d="M0 0 C0.33 0 0.66 0 1 0 C1.9375 3.125 1.9375 3.125 2 7 C0.08115826 9.60651913 -2.09466683 11.56183109 -5 13 C-7.23828125 12.65625 -7.23828125 12.65625 -9 12 C-8.05125 11.38125 -7.1025 10.7625 -6.125 10.125 C-1.89897209 7.40448417 -1.89897209 7.40448417 -0.375 2.875 C-0.25125 1.92625 -0.1275 0.9775 0 0 Z " fill="#B0C2D3" transform="translate(137,60)"/>
<path d="M0 0 C1.65 0 3.3 0 5 0 C6.42041821 2.84083641 6.31452272 4.85477278 6 8 C4 10.375 4 10.375 2 12 C2.66 8.37 3.32 4.74 4 1 C2.68 0.67 1.36 0.34 0 0 Z " fill="#BCCCD6" transform="translate(128,39)"/>
<path d="M0 0 C1.4606285 2.64738916 2 3.89448334 2 7 C0.35 6.67 -1.3 6.34 -3 6 C-2.42655063 3.13275314 -2.1385485 2.1385485 0 0 Z " fill="#FDFAF5" transform="translate(43,70)"/>
<path d="M0 0 C1.32 0 2.64 0 4 0 C3.67 2.97 3.34 5.94 3 9 C2.67 9 2.34 9 2 9 C2 7.02 2 5.04 2 3 C0.68 2.67 -0.64 2.34 -2 2 C-1.34 1.34 -0.68 0.68 0 0 Z " fill="#121722" transform="translate(128,40)"/>
<path d="M0 0 C1.22589844 0.01353516 1.22589844 0.01353516 2.4765625 0.02734375 C3.41628906 0.04474609 3.41628906 0.04474609 4.375 0.0625 C4.045 0.7225 3.715 1.3825 3.375 2.0625 C1.0609378 2.79325648 -1.27328869 3.46388258 -3.625 4.0625 C-4.615 3.0725 -5.605 2.0825 -6.625 1.0625 C-4.21954362 -0.14022819 -2.67503047 -0.03821472 0 0 Z " fill="#55575A" transform="translate(76.625,74.9375)"/>
<path d="M0 0 C1.32 0 2.64 0 4 0 C4 1.65 4 3.3 4 5 C2.35 4.67 0.7 4.34 -1 4 C-0.67 2.68 -0.34 1.36 0 0 Z " fill="#D3D3D3" transform="translate(208,69)"/>
<path d="M0 0 C-0.33 0.99 -0.66 1.98 -1 3 C-1.99 3 -2.98 3 -4 3 C-4.33 3.99 -4.66 4.98 -5 6 C-5.33 5.34 -5.66 4.68 -6 4 C-6.66 4 -7.32 4 -8 4 C-7 1 -7 1 -4.5625 -0.25 C-2 -1 -2 -1 0 0 Z " fill="#3A3A38" transform="translate(99,68)"/>
<path d="M0 0 C0.66 0.33 1.32 0.66 2 1 C0.7934375 2.11375 0.7934375 2.11375 -0.4375 3.25 C-2.76988591 5.75304829 -3.63534394 6.7180955 -4 10 C-4.66 9.34 -5.32 8.68 -6 8 C-5.9375 6.125 -5.9375 6.125 -5 4 C-2.4375 1.75 -2.4375 1.75 0 0 Z " fill="#3B3B3B" transform="translate(198,65)"/>
<path d="M0 0 C0.33 0 0.66 0 1 0 C1.33 3.3 1.66 6.6 2 10 C1.01 10.33 0.02 10.66 -1 11 C-2.23076923 4.6 -2.23076923 4.6 -1.0625 1.5625 C-0.711875 1.046875 -0.36125 0.53125 0 0 Z " fill="#0B0B0B" transform="translate(187,69)"/>
<path d="M0 0 C1.2065625 0.0309375 1.2065625 0.0309375 2.4375 0.0625 C1.06766497 3.22365776 0.4484362 4.0552092 -2.5625 6.0625 C-2.94468767 4.40635343 -3.27645102 2.73792976 -3.5625 1.0625 C-2.5625 0.0625 -2.5625 0.0625 0 0 Z " fill="#060B10" transform="translate(159.5625,66.9375)"/>
<path d="M0 0 C0.33 0.66 0.66 1.32 1 2 C-0.4375 4.625 -0.4375 4.625 -2 7 C-3.32 6.67 -4.64 6.34 -6 6 C-5.34 6 -4.68 6 -4 6 C-3.896875 5.38125 -3.79375 4.7625 -3.6875 4.125 C-3 2 -3 2 0 0 Z " fill="#292930" transform="translate(172,71)"/>
<path d="M0 0 C-1.43333021 0.39063507 -2.87192679 0.76198474 -4.3125 1.125 C-5.51326172 1.43824219 -5.51326172 1.43824219 -6.73828125 1.7578125 C-9 2 -9 2 -12 0 C-3.96428571 -2.41071429 -3.96428571 -2.41071429 0 0 Z " fill="#414040" transform="translate(60,76)"/>
<path d="M0 0 C1.32 0.66 2.64 1.32 4 2 C3.34 2 2.68 2 2 2 C2 2.66 2 3.32 2 4 C3.98 4 5.96 4 8 4 C8 4.33 8 4.66 8 5 C5.69 5 3.38 5 1 5 C0.67 5.66 0.34 6.32 0 7 C-1.33332095 4.3333581 -0.67102033 2.83319697 0 0 Z " fill="#3F4246" transform="translate(62,73)"/>
<path d="M0 0 C0.99 0 1.98 0 3 0 C2.625 2.9375 2.625 2.9375 2 6 C1.01 6.495 1.01 6.495 0 7 C-0.38133299 5.0085944 -0.71325582 3.00720923 -1 1 C-0.67 0.67 -0.34 0.34 0 0 Z " fill="#1A1917" transform="translate(48,42)"/>
<path d="M0 0 C-2.375 1.5625 -2.375 1.5625 -5 3 C-7 2 -7 2 -8 -1 C-3.375 -2.25 -3.375 -2.25 0 0 Z " fill="#48494A" transform="translate(107,76)"/>
<path d="M0 0 C0 1.32 0 2.64 0 4 C-1.98 4 -3.96 4 -6 4 C-6 3.01 -6 2.02 -6 1 C-3.92446352 0.4465236 -2.15634036 0 0 0 Z " fill="#080606" transform="translate(36,73)"/>
<path d="M0 0 C1.41377341 2.63904371 2.37240135 5.07120629 3 8 C2.01 8 1.02 8 0 8 C-0.66 6.02 -1.32 4.04 -2 2 C-1.34 2 -0.68 2 0 2 C0 1.34 0 0.68 0 0 Z " fill="#C1C1C1" transform="translate(185,76)"/>
<path d="M0 0 C0.66 0 1.32 0 2 0 C1.67 4.62 1.34 9.24 1 14 C0.67 14 0.34 14 0 14 C-0.19393875 11.85473901 -0.37998676 9.70876323 -0.5625 7.5625 C-0.71912109 5.77005859 -0.71912109 5.77005859 -0.87890625 3.94140625 C-0.91886719 2.97074219 -0.95882812 2.00007813 -1 1 C-0.67 0.67 -0.34 0.34 0 0 Z " fill="#B0B0B0" transform="translate(234,62)"/>
<path d="M0 0 C0.99 0.33 1.98 0.66 3 1 C4.1875 4.0625 4.1875 4.0625 5 7 C4.01 7.495 4.01 7.495 3 8 C0 3.375 0 3.375 0 0 Z " fill="#D4D4D4" transform="translate(230,55)"/>
<path d="M0 0 C0.99 0 1.98 0 3 0 C2.67 1.98 2.34 3.96 2 6 C1.01 6 0.02 6 -1 6 C-0.67 4.02 -0.34 2.04 0 0 Z " fill="#161616" transform="translate(235,80)"/>
<path d="M0 0 C0.99 0.33 1.98 0.66 3 1 C2.34 1 1.68 1 1 1 C0.71125 1.78375 0.4225 2.5675 0.125 3.375 C-1 6 -1 6 -3 8 C-3.1875 5.125 -3.1875 5.125 -3 2 C-2.01 1.34 -1.02 0.68 0 0 Z " fill="#141E2D" transform="translate(118,72)"/>
<path d="M0 0 C0.99 0 1.98 0 3 0 C3 0.66 3 1.32 3 2 C2.34 2 1.68 2 1 2 C0.67 3.65 0.34 5.3 0 7 C-0.66 5.68 -1.32 4.36 -2 3 C-1.34 2.01 -0.68 1.02 0 0 Z " fill="#120C0C" transform="translate(141,72)"/>
<path d="M0 0 C1.20628008 2.33214148 2.1654738 4.49642139 3 7 C1.68 6.67 0.36 6.34 -1 6 C-1.625 4.125 -1.625 4.125 -2 2 C-1.34 1.34 -0.68 0.68 0 0 Z " fill="#080808" transform="translate(196,69)"/>
<path d="M0 0 C0.99 0.33 1.98 0.66 3 1 C1.68 3.31 0.36 5.62 -1 8 C-1.93065133 5.39417629 -2.14917407 4.35801776 -1.0625 1.75 C-0.711875 1.1725 -0.36125 0.595 0 0 Z " fill="#E0CEBA" transform="translate(148,60)"/>
<path d="M0 0 C0.33 0.99 0.66 1.98 1 3 C-0.375 5.6875 -0.375 5.6875 -2 8 C-2.33 8 -2.66 8 -3 8 C-3.36923077 3.44615385 -3.36923077 3.44615385 -1.5 1.1875 C-1.005 0.795625 -0.51 0.40375 0 0 Z " fill="#D3DAD9" transform="translate(121,59)"/>
<path d="M0 0 C0.66 0.33 1.32 0.66 2 1 C0.02 2.98 -1.96 4.96 -4 7 C-4.66 6.67 -5.32 6.34 -6 6 C-4 4 -2 2 0 0 Z " fill="#D5D5D5" transform="translate(198,53)"/>
</svg>
